<svg width="22" height="22" viewBox="0 0 22 22" fill="none" xmlns="http://www.w3.org/2000/svg">
<path d="M11 11.9166C12.5188 11.9166 13.75 10.6854 13.75 9.16663C13.75 7.64784 12.5188 6.41663 11 6.41663C9.48122 6.41663 8.25 7.64784 8.25 9.16663C8.25 10.6854 9.48122 11.9166 11 11.9166Z" stroke="url(#paint0_linear_1_25)" stroke-width="2" stroke-linecap="round" stroke-linejoin="round"/>
<path d="M11 1.83331C9.0551 1.83331 7.18984 2.60593 5.81457 3.9812C4.4393 5.35646 3.66669 7.22173 3.66669 9.16665C3.66669 10.901 4.03519 12.0358 5.04169 13.2916L11 20.1666L16.9584 13.2916C17.9649 12.0358 18.3334 10.901 18.3334 9.16665C18.3334 7.22173 17.5607 5.35646 16.1855 3.9812C14.8102 2.60593 12.9449 1.83331 11 1.83331V1.83331Z" stroke="url(#paint1_linear_1_25)" stroke-width="2" stroke-linecap="round" stroke-linejoin="round"/>
<defs>
<linearGradient id="paint0_linear_1_25" x1="8.89167" y1="6.78329" x2="14.1625" y2="12.4208" gradientUnits="userSpaceOnUse">
<stop stop-color="#D100F3"/>
<stop offset="1" stop-color="#002BC5"/>
</linearGradient>
<linearGradient id="paint1_linear_1_25" x1="5.3778" y1="3.05553" x2="22.7752" y2="17.9416" gradientUnits="userSpaceOnUse">
<stop stop-color="#D100F3"/>
<stop offset="1" stop-color="#002BC5"/>
</linearGradient>
</defs>
</svg>
