<svg width="44" height="39" viewBox="0 0 44 39" fill="none" xmlns="http://www.w3.org/2000/svg">
<g clip-path="url(#clip0_1_411)">
<path d="M19.7982 1.35477L14.8895 11.4319L3.90688 13.0531C1.93738 13.3423 1.14807 15.8007 2.57634 17.2088L10.522 25.0483L8.64271 36.1225C8.30444 38.1243 10.3867 39.6237 12.1307 38.6875L21.9557 33.4586L31.7806 38.6875C33.5246 39.6161 35.6069 38.1243 35.2686 36.1225L33.3893 25.0483L41.335 17.2088C42.7632 15.8007 41.9739 13.3423 40.0044 13.0531L29.0218 11.4319L24.1131 1.35477C23.2336 -0.441459 20.6852 -0.464292 19.7982 1.35477Z" fill="#D9D9D9"/>
<path d="M29.0218 11.4319L24.1131 1.35477C23.6701 0.446237 22.8126 -0.00283331 21.9557 -0.000970793V33.4586L31.7806 38.6875C33.5246 39.6237 35.6069 38.1243 35.2686 36.1225L33.3893 25.0483L41.335 17.2088C42.7632 15.8007 41.9739 13.3423 40.0044 13.0531L29.0218 11.4319Z" fill="#D9D9D9"/>
</g>
<defs>
<clipPath id="clip0_1_411">
<rect width="43.299" height="38.9691" fill="white" transform="translate(0.306152)"/>
</clipPath>
</defs>
</svg>
