<svg width="18" height="17" viewBox="0 0 18 17" fill="none" xmlns="http://www.w3.org/2000/svg">
<g clip-path="url(#clip0_1_256)">
<path d="M8.10314 0.563177L6.06251 4.7524L1.49689 5.42634C0.67814 5.54658 0.350015 6.56857 0.943765 7.15392L4.24689 10.4129L3.46564 15.0166C3.32501 15.8488 4.19064 16.4721 4.91564 16.0829L9.00002 13.9092L13.0844 16.0829C13.8094 16.4689 14.675 15.8488 14.5344 15.0166L13.7531 10.4129L17.0563 7.15392C17.65 6.56857 17.3219 5.54658 16.5031 5.42634L11.9375 4.7524L9.89689 0.563177C9.53127 -0.183542 8.47189 -0.193034 8.10314 0.563177Z" fill="#D9D9D9"/>
<path d="M11.9375 4.7524L9.89686 0.563177C9.71269 0.185486 9.35624 -0.00119912 8.99998 -0.000424848V13.9092L13.0844 16.0829C13.8094 16.4721 14.675 15.8488 14.5344 15.0166L13.7531 10.4129L17.0562 7.15392C17.65 6.56857 17.3219 5.54658 16.5031 5.42634L11.9375 4.7524Z" fill="#D9D9D9"/>
</g>
<defs>
<clipPath id="clip0_1_256">
<rect width="18" height="16.2" fill="white"/>
</clipPath>
</defs>
</svg>
