<svg width="78" height="78" viewBox="0 0 78 78" fill="none" xmlns="http://www.w3.org/2000/svg">
<path d="M42.9001 11.7C42.9001 10.6656 42.4892 9.67366 41.7578 8.94227C41.0264 8.21088 40.0344 7.79999 39 7.79999C37.9657 7.79999 36.9737 8.21088 36.2423 8.94227C35.5109 9.67366 35.1 10.6656 35.1 11.7V15.6C35.1 16.6343 35.5109 17.6263 36.2423 18.3577C36.9737 19.0891 37.9657 19.5 39 19.5C40.0344 19.5 41.0264 19.0891 41.7578 18.3577C42.4892 17.6263 42.9001 16.6343 42.9001 15.6V11.7ZM61.0623 22.4523C61.7728 21.7167 62.1659 20.7316 62.157 19.709C62.1481 18.6865 61.7379 17.7083 61.0148 16.9852C60.2917 16.2621 59.3136 15.8519 58.291 15.8431C57.2684 15.8342 56.2833 16.2273 55.5477 16.9377L52.7905 19.695C52.08 20.4305 51.6869 21.4157 51.6958 22.4383C51.7047 23.4608 52.1149 24.439 52.838 25.1621C53.5611 25.8852 54.5392 26.2953 55.5618 26.3042C56.5844 26.3131 57.5695 25.92 58.305 25.2096L61.0623 22.4523ZM70.2001 39C70.2001 40.0343 69.7892 41.0263 69.0578 41.7577C68.3264 42.4891 67.3344 42.9 66.3 42.9H62.4001C61.3657 42.9 60.3737 42.4891 59.6423 41.7577C58.9109 41.0263 58.5 40.0343 58.5 39C58.5 37.9656 58.9109 36.9737 59.6423 36.2423C60.3737 35.5109 61.3657 35.1 62.4001 35.1H66.3C67.3344 35.1 68.3264 35.5109 69.0578 36.2423C69.7892 36.9737 70.2001 37.9656 70.2001 39ZM19.6951 25.2096C20.0548 25.5821 20.4852 25.8792 20.961 26.0836C21.4368 26.288 21.9485 26.3956 22.4664 26.4001C22.9842 26.4046 23.4978 26.3059 23.9771 26.1098C24.4564 25.9137 24.8918 25.6241 25.258 25.2579C25.6242 24.8917 25.9138 24.4563 26.1099 23.977C26.306 23.4977 26.4046 22.9842 26.4001 22.4663C26.3956 21.9485 26.288 21.4367 26.0836 20.9609C25.8792 20.4851 25.5821 20.0548 25.2097 19.695L22.4523 16.9377C21.7168 16.2273 20.7317 15.8342 19.7091 15.8431C18.6865 15.8519 17.7083 16.2621 16.9853 16.9852C16.2622 17.7083 15.852 18.6865 15.8431 19.709C15.8342 20.7316 16.2273 21.7167 16.9377 22.4523L19.6951 25.2096ZM19.5 39C19.5 40.0343 19.0892 41.0263 18.3578 41.7577C17.6264 42.4891 16.6344 42.9 15.6 42.9H11.7C10.6657 42.9 9.67372 42.4891 8.94233 41.7577C8.21094 41.0263 7.80005 40.0343 7.80005 39C7.80005 37.9656 8.21094 36.9737 8.94233 36.2423C9.67372 35.5109 10.6657 35.1 11.7 35.1H15.6C16.6344 35.1 17.6264 35.5109 18.3578 36.2423C19.0892 36.9737 19.5 37.9656 19.5 39ZM31.2001 62.4V58.5H46.8V62.4C46.8 64.4687 45.9783 66.4526 44.5155 67.9154C43.0527 69.3782 41.0687 70.2 39 70.2C36.9314 70.2 34.9474 69.3782 33.4846 67.9154C32.0218 66.4526 31.2001 64.4687 31.2001 62.4ZM46.8 54.6C46.8586 53.274 47.6113 52.0806 48.6604 51.2499C51.2058 49.2424 53.0626 46.4918 53.9727 43.3803C54.8828 40.2688 54.8009 36.9512 53.7385 33.8884C52.6761 30.8256 50.6859 28.1699 48.0445 26.2903C45.4032 24.4108 42.2419 23.4009 39 23.4009C35.7582 23.4009 32.5969 24.4108 29.9556 26.2903C27.3142 28.1699 25.324 30.8256 24.2616 33.8884C23.1992 36.9512 23.1173 40.2688 24.0274 43.3803C24.9375 46.4918 26.7943 49.2424 29.3397 51.2499C30.3927 52.0806 31.1416 53.274 31.1961 54.6H46.804H46.8Z" fill="white"/>
</svg>
