<svg width="126" height="24" viewBox="0 0 126 24" fill="none" xmlns="http://www.w3.org/2000/svg">
<path d="M0 4.71744H6.13874L9.9375 16.5237H10.0134L13.2008 4.71744H19.4913L22.9444 16.5237H23.0245L26.5155 4.71744H32.3464L25.7102 23.5309H20.031L16.1521 11.0269H16.0762L12.6232 23.5309H6.83019L0 4.71744Z" fill="white"/>
<path d="M39.6995 0H33.5649V4.71826H39.6995V0Z" fill="white"/>
<path d="M39.6995 4.71741H33.5649V23.5351H39.6995V4.71741Z" fill="#A1CC56"/>
<path d="M52.8031 10.2537C52.4085 9.74491 51.9013 9.33639 51.3222 9.06083C50.7431 8.78526 50.1082 8.65031 49.4681 8.66676C48.5068 8.66676 47.36 9.09221 47.36 10.2154C47.36 13.0021 57.0572 10.6409 57.0572 17.8012C57.0572 22.6045 52.4489 24 48.4604 24C45.8506 24 42.9794 23.3406 41.1328 21.4473L44.6237 17.5374C45.6989 18.8521 46.9637 19.5881 48.6881 19.5881C49.9951 19.5881 51.2979 19.2392 51.2979 18.2352C51.2979 15.2145 41.6007 17.7672 41.6007 10.6068C41.6007 6.18637 45.5344 4.25482 49.426 4.25482C51.884 4.25482 54.6076 4.87598 56.3362 6.7352L52.8031 10.2537Z" fill="white"/>
<path d="M71.1605 9.35993H66.1011V15.6353C66.1011 17.6477 66.333 19.1198 68.8248 19.1198C69.4403 19.1198 70.6672 19.0432 71.169 18.5795V23.3998C69.8683 23.8252 68.505 24.0224 67.1383 23.9827C63.3016 23.9827 60.3461 22.3958 60.3461 18.2902V9.35993H56.6611V4.71826H60.3461V0H66.1011V4.71826H71.1605V9.35993Z" fill="white"/>
<path d="M73.184 4.7184H78.9391V7.73485H79.015C80.2419 5.45443 81.8525 4.2504 84.3864 4.2504C85.0315 4.23348 85.6761 4.29924 86.3047 4.44611V9.75149C85.5093 9.50457 84.6831 9.37279 83.8509 9.36007C79.4745 9.36007 78.9391 11.9128 78.9391 15.6738V23.5361H73.184V4.7184Z" fill="white"/>
<path d="M91.4443 14.1253C91.4443 11.3003 93.1729 9.3645 96.0483 9.3645C98.9238 9.3645 100.652 11.3003 100.652 14.1253C100.652 16.9503 98.928 18.8904 96.0483 18.8904C93.1687 18.8904 91.4443 16.9503 91.4443 14.1253ZM85.6892 14.1253C85.6892 20.1242 90.2933 24 96.0483 24C101.803 24 106.412 20.1242 106.412 14.1253C106.412 8.12643 101.803 4.25482 96.0483 4.25482C90.2933 4.25482 85.6892 8.12643 85.6892 14.1296" fill="white"/>
<path d="M108.043 4.71806H113.567V7.27077H113.643C114.41 5.79871 116.29 4.25006 119.09 4.25006C124.925 4.25006 126 8.12167 126 13.1548V23.5358H120.245V14.3205C120.245 12.1507 120.207 9.35974 117.252 9.35974C114.296 9.35974 113.799 11.7252 113.799 14.1631V23.523H108.043V4.71806Z" fill="white"/>
</svg>
